<?xml version="1.0" encoding="utf-8"?>
<!-- Generator: Adobe Illustrator 24.0.0, SVG Export Plug-In . SVG Version: 6.00 Build 0)  -->
<svg version="1.1"
	 id="svg3070" inkscape:version="0.48.0 r9654" sodipodi:docname="New document 4" xmlns:cc="http://creativecommons.org/ns#" xmlns:dc="http://purl.org/dc/elements/1.1/" xmlns:inkscape="http://www.inkscape.org/namespaces/inkscape" xmlns:rdf="http://www.w3.org/1999/02/22-rdf-syntax-ns#" xmlns:sodipodi="http://sodipodi.sourceforge.net/DTD/sodipodi-0.dtd" xmlns:svg="http://www.w3.org/2000/svg"
	 xmlns="http://www.w3.org/2000/svg" xmlns:xlink="http://www.w3.org/1999/xlink" x="0px" y="0px" viewBox="0 0 79.3 79.5"
	 style="enable-background:new 0 0 79.3 79.5;" xml:space="preserve">
<style type="text/css">
	.st0{fill:#006699;}
	.st1{fill:#FFFFFF;}
</style>
<sodipodi:namedview  bordercolor="#666666" borderopacity="1.0" fit-margin-bottom="0" fit-margin-left="0" fit-margin-right="0" fit-margin-top="0" id="base" inkscape:current-layer="layer1" inkscape:cx="142.93233" inkscape:cy="33.703355" inkscape:document-units="px" inkscape:pageopacity="0.0" inkscape:pageshadow="2" inkscape:window-height="750" inkscape:window-maximized="1" inkscape:window-width="1280" inkscape:window-x="-8" inkscape:window-y="-8" inkscape:zoom="2.8" pagecolor="#ffffff" showgrid="false">
	</sodipodi:namedview>
<g>
	<path class="st0" d="M42.9,36.2v-0.1C42.9,36.1,42.9,36.1,42.9,36.2L42.9,36.2z"/>
	<path class="st1" d="M72.3,1.8H7.8c-3.1,0-5.6,2.4-5.6,5.5v65.3c0,3,2.5,5.5,5.6,5.5h64.6c3.1,0,5.6-2.4,5.6-5.5V7.2
		C77.9,4.2,75.4,1.8,72.3,1.8z M25.1,65.6H13.7V31.2h11.4V65.6z M19.4,26.5L19.4,26.5L19.4,26.5c-3.9,0-6.4-2.6-6.4-5.9
		c0-3.4,2.6-5.9,6.5-5.9c3.9,0,6.3,2.6,6.4,5.9C25.9,23.8,23.4,26.5,19.4,26.5z M66.4,65.6H55V47.2c0-4.6-1.7-7.8-5.8-7.8
		c-3.2,0-5,2.1-5.9,4.2c-0.3,0.7-0.4,1.8-0.4,2.8v19.2H31.5c0,0,0.2-31.2,0-34.4h11.4v4.9c1.5-2.3,4.2-5.7,10.3-5.7
		c7.5,0,13.2,4.9,13.2,15.5V65.6z"/>
</g>
</svg>
