<svg xmlns="http://www.w3.org/2000/svg" xmlns:xlink="http://www.w3.org/1999/xlink" viewBox="0 0 448 315" width="448" height="315" role="img" aria-labelledby="gm-t"><title id="gm-t">Gunter Metals LLC</title><defs><filter id="gm-soft" x="-25%" y="-35%" width="150%" height="170%" color-interpolation-filters="sRGB"><feGaussianBlur stdDeviation="12"/></filter><filter id="gm-tight" x="-25%" y="-35%" width="150%" height="170%" color-interpolation-filters="sRGB"><feGaussianBlur stdDeviation="7"/></filter><filter id="gm-grain" x="0" y="0" width="100%" height="100%" color-interpolation-filters="sRGB"><feTurbulence type="fractalNoise" baseFrequency="0.55" numOctaves="2" seed="11" result="n"/><feColorMatrix in="n" values="0 0 0 0 1 0 0 0 0 1 0 0 0 0 1 1.6 0 0 0 -0.82" result="hi"/><feColorMatrix in="n" values="0 0 0 0 0 0 0 0 0 0 0 0 0 0 0 -1.6 0 0 0 0.76" result="lo"/><feMerge><feMergeNode in="lo"/><feMergeNode in="hi"/></feMerge><feComposite operator="in" in2="SourceAlpha"/></filter><g id="gm-g"><path d="M16.03 37.83C16.03 51.08 25.24 60.58 37.44 60.58C41.66 60.58 44.73 59.81 47.8 58.37V34.66H62.1V67.59C55.19 72.01 47.32 74.89 37.24 74.89C17.37 74.89 0.19 60.39 0.19 37.54C0.19 14.69 17.37 0 37.34 0C45.98 0 53.47 2.21 59.22 5.47V20.93C52.99 16.51 45.79 14.69 39.16 14.69C25.44 14.69 16.03 24.58 16.03 37.83Z"/><path d="M103.51 74.89C85.17 74.89 74.04 62.6 74.04 45.03V1.63H89.68V45.12C89.68 54.92 94.87 60.58 103.51 60.58C112.34 60.58 117.81 54.92 117.81 45.03V1.63H133.55V45.03C133.55 62.6 122.03 74.89 103.51 74.89Z"/><path d="M209.93 1.63V73.25H195.14L163.28 26.5H163.18V73.25H148.21V1.63H163.37L194.95 47.62H195.05V1.63H209.93Z"/><path d="M240.61 73.25V15.94H219.59V1.63H277.09V15.94H256.16V73.25H240.61Z"/><path d="M286.75 73.25V1.63H331.67V15.75H302.4V30.63H329.18V43.59H302.4V59.24H331.67V73.25H286.75Z"/><path d="M344.96 73.25V1.63H367.62C384.89 1.63 395.64 9.98 395.64 24.96C395.64 33.51 391.13 43.2 377.5 46.76L399.1 73.25H380.29L361.28 48.1H360.61V73.25H344.96ZM360.61 36H366.94C375.39 36 379.9 32.26 379.9 25.92C379.9 19.39 375.01 15.94 367.23 15.94H360.61V36Z"/><path d="M21.12 119.34L14.88 169.26H0L10.27 97.64H28.8L43.87 145.55H44.06L58.84 97.64H76.89L87.16 169.26H72.18L66.14 119.15H65.75L50.2 169.26H36.86L21.41 119.34H21.12Z"/><path d="M98.62 169.26V97.64H143.54V111.75H114.26V126.63H141.04V139.59H114.26V155.24H143.54V169.26H98.62Z"/><path d="M172 169.26V111.94H150.97V97.64H208.47V111.94H187.55V169.26H172Z"/><path d="M275.14 169.26H258.73L252.39 151.79H225.61L219.47 169.26H203.15L229.93 97.64H247.98L275.14 169.26ZM229.93 138.92H247.98L238.95 113.96L229.93 138.92Z"/><path d="M283.1 169.26V97.64H298.74V155.05H328.4V169.26H283.1Z"/><path d="M360.59 96.1C367.88 96.1 374.41 98.22 379.21 101V115.4C374.51 112.04 367.4 109.93 361.45 109.93C355.12 109.93 350.7 112.42 350.7 116.94C350.7 121.16 354.64 123.08 362.12 126.15C372.3 130.19 383.43 134.7 383.43 148.33C383.43 161.77 372.97 170.8 357.13 170.8C348.21 170.8 340.24 167.92 335.44 164.36V149.2C340.43 153.71 348.21 157.07 355.6 157.07C362.7 157.07 367.4 153.8 367.4 148.91C367.4 144.11 362.41 141.8 354.64 138.63C345.81 134.99 335.25 130.28 335.25 117.51C335.25 105.03 345.13 96.1 360.59 96.1Z"/><path d="M4.22 265.27V193.65H19.87V251.06H49.53V265.27H4.22Z"/><path d="M59.25 265.27V193.65H74.89V251.06H104.55V265.27H59.25Z"/><path d="M163.97 261.91C158.78 264.69 152.54 266.9 144.29 266.9C124.42 266.9 107.43 252.02 107.43 229.46C107.43 206.9 124.42 192.01 144.29 192.01C152.54 192.01 158.88 194.22 163.97 196.91V212.46C158.21 208.62 153.02 206.51 145.92 206.51C133.73 206.51 123.27 215.54 123.27 229.46C123.27 243.28 133.73 252.5 145.92 252.5C153.02 252.5 158.21 250.1 163.97 246.16V261.91Z"/></g><linearGradient id="gm-s0" x1="0" y1="0" x2="0" y2="266.9" gradientUnits="userSpaceOnUse"><stop offset="0" stop-color="#1e2125"/><stop offset="0.5" stop-color="#131517"/><stop offset="1" stop-color="#0c0d0f"/></linearGradient><linearGradient id="gm-s1" x1="0" y1="0" x2="0" y2="266.9" gradientUnits="userSpaceOnUse"><stop offset="0" stop-color="#1f2125"/><stop offset="0.5" stop-color="#141518"/><stop offset="1" stop-color="#0d0e10"/></linearGradient><linearGradient id="gm-s2" x1="0" y1="0" x2="0" y2="266.9" gradientUnits="userSpaceOnUse"><stop offset="0" stop-color="#1f2226"/><stop offset="0.5" stop-color="#141619"/><stop offset="1" stop-color="#0d0e11"/></linearGradient><linearGradient id="gm-s3" x1="0" y1="0" x2="0" y2="266.9" gradientUnits="userSpaceOnUse"><stop offset="0" stop-color="#202226"/><stop offset="0.5" stop-color="#15171a"/><stop offset="1" stop-color="#0e0f11"/></linearGradient><linearGradient id="gm-s4" x1="0" y1="0" x2="0" y2="266.9" gradientUnits="userSpaceOnUse"><stop offset="0" stop-color="#202327"/><stop offset="0.5" stop-color="#16171a"/><stop offset="1" stop-color="#0f1012"/></linearGradient><linearGradient id="gm-s5" x1="0" y1="0" x2="0" y2="266.9" gradientUnits="userSpaceOnUse"><stop offset="0" stop-color="#212428"/><stop offset="0.5" stop-color="#16181b"/><stop offset="1" stop-color="#0f1113"/></linearGradient><linearGradient id="gm-s6" x1="0" y1="0" x2="0" y2="266.9" gradientUnits="userSpaceOnUse"><stop offset="0" stop-color="#212529"/><stop offset="0.5" stop-color="#17191c"/><stop offset="1" stop-color="#101114"/></linearGradient><linearGradient id="gm-s7" x1="0" y1="0" x2="0" y2="266.9" gradientUnits="userSpaceOnUse"><stop offset="0" stop-color="#222529"/><stop offset="0.5" stop-color="#171a1d"/><stop offset="1" stop-color="#111214"/></linearGradient><linearGradient id="gm-s8" x1="0" y1="0" x2="0" y2="266.9" gradientUnits="userSpaceOnUse"><stop offset="0" stop-color="#23262a"/><stop offset="0.5" stop-color="#181a1d"/><stop offset="1" stop-color="#111315"/></linearGradient><linearGradient id="gm-s9" x1="0" y1="0" x2="0" y2="266.9" gradientUnits="userSpaceOnUse"><stop offset="0" stop-color="#23272b"/><stop offset="0.5" stop-color="#191b1e"/><stop offset="1" stop-color="#121316"/></linearGradient><linearGradient id="gm-s10" x1="0" y1="0" x2="0" y2="266.9" gradientUnits="userSpaceOnUse"><stop offset="0" stop-color="#24272c"/><stop offset="0.5" stop-color="#191c1f"/><stop offset="1" stop-color="#121417"/></linearGradient><linearGradient id="gm-s11" x1="0" y1="0" x2="0" y2="266.9" gradientUnits="userSpaceOnUse"><stop offset="0" stop-color="#25282c"/><stop offset="0.5" stop-color="#1a1c20"/><stop offset="1" stop-color="#131517"/></linearGradient><linearGradient id="gm-s12" x1="0" y1="0" x2="0" y2="266.9" gradientUnits="userSpaceOnUse"><stop offset="0" stop-color="#25292d"/><stop offset="0.5" stop-color="#1a1d20"/><stop offset="1" stop-color="#141618"/></linearGradient><linearGradient id="gm-s13" x1="0" y1="0" x2="0" y2="266.9" gradientUnits="userSpaceOnUse"><stop offset="0" stop-color="#26292e"/><stop offset="0.5" stop-color="#1b1d21"/><stop offset="1" stop-color="#141619"/></linearGradient><linearGradient id="gm-s14" x1="0" y1="0" x2="0" y2="266.9" gradientUnits="userSpaceOnUse"><stop offset="0" stop-color="#272a2f"/><stop offset="0.5" stop-color="#1c1e21"/><stop offset="1" stop-color="#15171a"/></linearGradient><linearGradient id="gm-s15" x1="0" y1="0" x2="0" y2="266.9" gradientUnits="userSpaceOnUse"><stop offset="0" stop-color="#272b2f"/><stop offset="0.5" stop-color="#1c1f22"/><stop offset="1" stop-color="#15171a"/></linearGradient><linearGradient id="gm-s16" x1="0" y1="0" x2="0" y2="266.9" gradientUnits="userSpaceOnUse"><stop offset="0" stop-color="#282c30"/><stop offset="0.5" stop-color="#1d1f23"/><stop offset="1" stop-color="#16181b"/></linearGradient><linearGradient id="gm-s17" x1="0" y1="0" x2="0" y2="266.9" gradientUnits="userSpaceOnUse"><stop offset="0" stop-color="#292c31"/><stop offset="0.5" stop-color="#1d2024"/><stop offset="1" stop-color="#17191c"/></linearGradient><linearGradient id="gm-s18" x1="0" y1="0" x2="0" y2="266.9" gradientUnits="userSpaceOnUse"><stop offset="0" stop-color="#292d31"/><stop offset="0.5" stop-color="#1e2124"/><stop offset="1" stop-color="#17191c"/></linearGradient><linearGradient id="gm-s19" x1="0" y1="0" x2="0" y2="266.9" gradientUnits="userSpaceOnUse"><stop offset="0" stop-color="#2a2d32"/><stop offset="0.5" stop-color="#1f2125"/><stop offset="1" stop-color="#181a1d"/></linearGradient><linearGradient id="gm-s20" x1="0" y1="0" x2="0" y2="266.9" gradientUnits="userSpaceOnUse"><stop offset="0" stop-color="#2a2e33"/><stop offset="0.5" stop-color="#1f2226"/><stop offset="1" stop-color="#181b1e"/></linearGradient><linearGradient id="gm-s21" x1="0" y1="0" x2="0" y2="266.9" gradientUnits="userSpaceOnUse"><stop offset="0" stop-color="#2b2f33"/><stop offset="0.5" stop-color="#202327"/><stop offset="1" stop-color="#191b1f"/></linearGradient><linearGradient id="gm-s22" x1="0" y1="0" x2="0" y2="266.9" gradientUnits="userSpaceOnUse"><stop offset="0" stop-color="#2b2f34"/><stop offset="0.5" stop-color="#212428"/><stop offset="1" stop-color="#1a1c1f"/></linearGradient><linearGradient id="gm-s23" x1="0" y1="0" x2="0" y2="266.9" gradientUnits="userSpaceOnUse"><stop offset="0" stop-color="#2c3035"/><stop offset="0.5" stop-color="#212428"/><stop offset="1" stop-color="#1a1d20"/></linearGradient><linearGradient id="gm-f" x1="0" y1="0" x2="0" y2="266.9" gradientUnits="userSpaceOnUse"><stop offset="0" stop-color="#5f666d"/><stop offset="0.06" stop-color="#727982"/><stop offset="0.1" stop-color="#656c74"/><stop offset="0.15" stop-color="#555b63"/><stop offset="0.25" stop-color="#5e646c"/><stop offset="0.35" stop-color="#656c74"/><stop offset="0.45" stop-color="#555b63"/><stop offset="0.55" stop-color="#444b52"/><stop offset="0.65" stop-color="#3f454c"/><stop offset="0.75" stop-color="#3c4148"/><stop offset="0.85" stop-color="#383d43"/><stop offset="0.9" stop-color="#363b41"/><stop offset="1" stop-color="#2f343a"/></linearGradient><linearGradient id="gm-h" x1="-71.27" y1="47.66" x2="104.92" y2="311.12" gradientUnits="userSpaceOnUse" gradientTransform="translate(0 0)"><stop offset="0" stop-color="#FFFFFF" stop-opacity="0"/><stop offset="0.42" stop-color="#FFFFFF" stop-opacity="0"/><stop offset="0.48" stop-color="#FFFFFF" stop-opacity="0.12"/><stop offset="0.54" stop-color="#FFFFFF" stop-opacity="0"/><stop offset="1" stop-color="#FFFFFF" stop-opacity="0"/></linearGradient><filter id="gm-ii" x="-5%" y="-5%" width="110%" height="110%" color-interpolation-filters="sRGB"><feColorMatrix in="SourceAlpha" values="0 0 0 0 0 0 0 0 0 0 0 0 0 0 0 0 0 0 127 0" result="a"/><feOffset dy="-1"/><feGaussianBlur stdDeviation="0.5"/><feComposite in2="a" operator="arithmetic" k2="-1" k3="1"/><feColorMatrix values="0 0 0 0 1 0 0 0 0 1 0 0 0 0 1 0 0 0 0.45 0"/><feBlend in2="SourceGraphic" result="hi"/><feOffset in="a" dy="2"/><feGaussianBlur stdDeviation="1"/><feComposite in2="a" operator="arithmetic" k2="-1" k3="1"/><feColorMatrix values="0 0 0 0 0 0 0 0 0 0 0 0 0 0 0 0 0 0 0.3 0"/><feBlend in2="hi"/></filter></defs><g filter="url(#gm-soft)" fill="#000" fill-opacity="0.2" transform="translate(24 24)"><use xlink:href="#gm-g"/></g><g filter="url(#gm-tight)" fill="#000" fill-opacity="0.45" transform="translate(27 30)"><use xlink:href="#gm-g"/></g><g><use xlink:href="#gm-g" fill="url(#gm-s0)" stroke="url(#gm-s0)" stroke-width="0.52" stroke-linejoin="round" transform="matrix(0.97 0 0 0.97 30.2 30.01)"/><use xlink:href="#gm-g" fill="url(#gm-s1)" stroke="url(#gm-s1)" stroke-width="0.52" stroke-linejoin="round" transform="matrix(0.9713 0 0 0.9713 29.82 29.5)"/><use xlink:href="#gm-g" fill="url(#gm-s2)" stroke="url(#gm-s2)" stroke-width="0.52" stroke-linejoin="round" transform="matrix(0.9725 0 0 0.9725 29.43 29)"/><use xlink:href="#gm-g" fill="url(#gm-s3)" stroke="url(#gm-s3)" stroke-width="0.52" stroke-linejoin="round" transform="matrix(0.9738 0 0 0.9738 29.05 28.5)"/><use xlink:href="#gm-g" fill="url(#gm-s4)" stroke="url(#gm-s4)" stroke-width="0.52" stroke-linejoin="round" transform="matrix(0.975 0 0 0.975 28.67 28)"/><use xlink:href="#gm-g" fill="url(#gm-s5)" stroke="url(#gm-s5)" stroke-width="0.52" stroke-linejoin="round" transform="matrix(0.9763 0 0 0.9763 28.28 27.5)"/><use xlink:href="#gm-g" fill="url(#gm-s6)" stroke="url(#gm-s6)" stroke-width="0.52" stroke-linejoin="round" transform="matrix(0.9775 0 0 0.9775 27.9 27)"/><use xlink:href="#gm-g" fill="url(#gm-s7)" stroke="url(#gm-s7)" stroke-width="0.52" stroke-linejoin="round" transform="matrix(0.9788 0 0 0.9788 27.52 26.5)"/><use xlink:href="#gm-g" fill="url(#gm-s8)" stroke="url(#gm-s8)" stroke-width="0.52" stroke-linejoin="round" transform="matrix(0.98 0 0 0.98 27.13 26)"/><use xlink:href="#gm-g" fill="url(#gm-s9)" stroke="url(#gm-s9)" stroke-width="0.52" stroke-linejoin="round" transform="matrix(0.9813 0 0 0.9813 26.75 25.5)"/><use xlink:href="#gm-g" fill="url(#gm-s10)" stroke="url(#gm-s10)" stroke-width="0.52" stroke-linejoin="round" transform="matrix(0.9825 0 0 0.9825 26.37 25)"/><use xlink:href="#gm-g" fill="url(#gm-s11)" stroke="url(#gm-s11)" stroke-width="0.52" stroke-linejoin="round" transform="matrix(0.9838 0 0 0.9838 25.98 24.5)"/><use xlink:href="#gm-g" fill="url(#gm-s12)" stroke="url(#gm-s12)" stroke-width="0.52" stroke-linejoin="round" transform="matrix(0.985 0 0 0.985 25.6 24)"/><use xlink:href="#gm-g" fill="url(#gm-s13)" stroke="url(#gm-s13)" stroke-width="0.52" stroke-linejoin="round" transform="matrix(0.9863 0 0 0.9863 25.22 23.5)"/><use xlink:href="#gm-g" fill="url(#gm-s14)" stroke="url(#gm-s14)" stroke-width="0.52" stroke-linejoin="round" transform="matrix(0.9875 0 0 0.9875 24.83 23)"/><use xlink:href="#gm-g" fill="url(#gm-s15)" stroke="url(#gm-s15)" stroke-width="0.52" stroke-linejoin="round" transform="matrix(0.9888 0 0 0.9888 24.45 22.5)"/><use xlink:href="#gm-g" fill="url(#gm-s16)" stroke="url(#gm-s16)" stroke-width="0.52" stroke-linejoin="round" transform="matrix(0.99 0 0 0.99 24.07 22)"/><use xlink:href="#gm-g" fill="url(#gm-s17)" stroke="url(#gm-s17)" stroke-width="0.52" stroke-linejoin="round" transform="matrix(0.9913 0 0 0.9913 23.68 21.5)"/><use xlink:href="#gm-g" fill="url(#gm-s18)" stroke="url(#gm-s18)" stroke-width="0.52" stroke-linejoin="round" transform="matrix(0.9925 0 0 0.9925 23.3 21)"/><use xlink:href="#gm-g" fill="url(#gm-s19)" stroke="url(#gm-s19)" stroke-width="0.52" stroke-linejoin="round" transform="matrix(0.9938 0 0 0.9938 22.92 20.5)"/><use xlink:href="#gm-g" fill="url(#gm-s20)" stroke="url(#gm-s20)" stroke-width="0.52" stroke-linejoin="round" transform="matrix(0.995 0 0 0.995 22.53 20)"/><use xlink:href="#gm-g" fill="url(#gm-s21)" stroke="url(#gm-s21)" stroke-width="0.52" stroke-linejoin="round" transform="matrix(0.9963 0 0 0.9963 22.15 19.5)"/><use xlink:href="#gm-g" fill="url(#gm-s22)" stroke="url(#gm-s22)" stroke-width="0.52" stroke-linejoin="round" transform="matrix(0.9975 0 0 0.9975 21.77 19)"/><use xlink:href="#gm-g" fill="url(#gm-s23)" stroke="url(#gm-s23)" stroke-width="0.52" stroke-linejoin="round" transform="matrix(0.9988 0 0 0.9988 21.38 18.5)"/></g><g filter="url(#gm-ii)" transform="translate(21 18)"><use xlink:href="#gm-g" fill="url(#gm-f)"/><use xlink:href="#gm-g" fill="url(#gm-h)" fill-opacity="0.24" style="mix-blend-mode:screen"/><use xlink:href="#gm-g" fill="#000" filter="url(#gm-grain)" opacity="0.3"/></g></svg>
